<?xml version="1.0" standalone="no"?>
<!DOCTYPE svg PUBLIC "-//W3C//DTD SVG 20010904//EN"
 "http://www.w3.org/TR/2001/REC-SVG-20010904/DTD/svg10.dtd">
<svg version="1.0" xmlns="http://www.w3.org/2000/svg"
 width="8334.000000pt" height="8334.000000pt" viewBox="0 0 8334.000000 8334.000000"
 preserveAspectRatio="xMidYMid meet">

<g transform="translate(0.000000,8334.000000) scale(0.100000,-0.100000)"
fill="#000000" stroke="none">
<path d="M12440 51469 c-1720 -75 -3330 -711 -4656 -1839 -183 -155 -643 -609
-795 -785 -1243 -1432 -1899 -3183 -1899 -5065 0 -2088 824 -4045 2317 -5500
1342 -1309 3030 -2059 4908 -2180 347 -22 896 -11 1260 26 2148 216 4081 1312
5393 3059 993 1323 1523 2924 1522 4605 -1 1764 -591 3440 -1694 4810 -304
377 -696 776 -1081 1098 -1464 1227 -3336 1856 -5275 1771z m610 -819 c508
-21 961 -87 1435 -207 1397 -354 2663 -1154 3590 -2268 1185 -1423 1746 -3253
1560 -5085 -149 -1456 -744 -2797 -1735 -3905 -137 -154 -459 -469 -620 -607
-594 -509 -1241 -901 -1955 -1185 -1043 -415 -2179 -567 -3300 -442 -1220 136
-2375 595 -3360 1334 -291 219 -507 409 -781 687 -1437 1460 -2144 3466 -1938
5503 137 1356 681 2646 1559 3700 766 920 1761 1626 2890 2050 653 245 1399
396 2105 424 273 11 294 11 550 1z"/>
<path d="M12405 50069 c-140 -9 -386 -33 -502 -51 l-73 -10 -2 -596 -3 -596
-140 -32 c-437 -97 -808 -229 -1195 -423 -352 -177 -666 -383 -990 -651 -154
-127 -513 -485 -641 -640 -462 -557 -783 -1152 -984 -1828 l-33 -112 285 2
285 3 48 135 c306 873 852 1621 1585 2171 463 348 1022 619 1585 768 243 64
571 119 823 137 l97 7 0 863 c0 475 -3 863 -7 863 -5 -1 -66 -6 -138 -10z"/>
<path d="M12980 49217 l0 -864 118 -6 c557 -30 1166 -194 1702 -457 738 -363
1340 -890 1795 -1570 230 -345 373 -628 516 -1025 l57 -160 285 -3 285 -2 -33
112 c-203 680 -529 1284 -996 1843 -118 141 -398 425 -550 556 -529 460 -1103
788 -1754 1004 -158 52 -515 147 -607 160 l-48 7 0 598 0 598 -77 11 c-123 18
-339 39 -453 46 -58 3 -135 8 -172 11 l-68 5 0 -864z"/>
<path d="M14180 49581 l0 -347 73 -18 c274 -70 679 -222 983 -370 441 -215
785 -437 1169 -754 163 -134 538 -506 677 -672 539 -642 930 -1380 1142 -2160
l34 -125 346 -3 346 -2 -6 27 c-397 1780 -1559 3308 -3181 4182 -452 244
-1032 463 -1520 575 l-63 14 0 -347z"/>
<path d="M11216 49884 c-513 -135 -988 -321 -1416 -554 -1552 -842 -2686
-2290 -3115 -3975 -24 -93 -46 -182 -49 -198 l-6 -27 346 2 346 3 34 125 c212
780 603 1518 1142 2160 139 166 514 538 677 672 557 459 1143 790 1797 1013
103 35 239 78 303 96 l115 31 0 344 0 344 -22 -1 c-13 0 -81 -16 -152 -35z"/>
<path d="M12500 47720 c-993 -83 -1855 -485 -2538 -1184 -480 -492 -826 -1100
-993 -1743 l-24 -93 -1196 0 -1196 0 -11 -82 c-14 -99 -38 -361 -47 -510 l-7
-108 1176 0 1176 0 0 -220 0 -220 -1176 0 -1176 0 6 -102 c15 -235 46 -537 61
-605 l5 -23 1197 -2 1197 -3 14 -50 c308 -1158 1126 -2117 2222 -2605 644
-287 1402 -396 2109 -304 1592 207 2900 1356 3313 2909 l14 50 1197 3 1197 2
5 23 c15 68 46 370 61 605 l6 102 -1176 0 -1176 0 0 220 0 220 1176 0 1176 0
-7 113 c-8 140 -32 395 -47 505 l-11 82 -1196 0 -1196 0 -24 93 c-109 422
-318 872 -578 1245 -187 269 -515 620 -758 813 -613 487 -1275 764 -2045 854
-159 19 -580 27 -730 15z m2190 -3080 l0 -335 -988 988 -989 989 -903 -911
c-497 -501 -908 -911 -912 -911 -4 0 -8 150 -8 332 l0 333 912 912 913 913
987 -987 988 -988 0 -335z m-1340 -525 l0 -1200 -315 -315 -315 -315 -325 325
-325 325 0 1180 0 1180 257 257 c142 142 261 258 265 258 5 0 8 -543 8 -1206
l0 -1206 29 -29 c25 -24 37 -29 80 -29 42 0 56 5 83 29 l33 29 3 1218 2 1219
260 -260 260 -260 0 -1200z m792 408 l548 -548 0 -770 0 -770 -987 -913 -987
-913 -913 913 -913 913 0 840 0 840 475 475 475 475 0 -1115 0 -1115 437 -437
438 -438 432 432 433 433 0 1122 c0 618 3 1123 7 1123 5 0 254 -246 555 -547z"/>
<path d="M6647 42358 c16 -84 108 -411 157 -559 256 -775 648 -1467 1188
-2104 131 -154 436 -465 603 -614 730 -653 1584 -1118 2525 -1375 107 -29 212
-56 233 -60 l37 -7 0 345 0 345 -57 17 c-426 119 -790 261 -1143 446 -1369
718 -2381 1954 -2810 3428 l-47 165 -347 3 -346 2 7 -32z"/>
<path d="M7860 42376 c0 -25 115 -366 169 -500 576 -1435 1798 -2556 3266
-2996 150 -45 347 -94 478 -120 l57 -11 0 -598 0 -598 133 -17 c165 -21 453
-46 530 -46 l57 0 0 860 c0 712 -2 860 -13 860 -8 0 -85 7 -173 15 -848 80
-1640 388 -2329 905 -322 241 -652 571 -902 901 -276 364 -509 797 -665 1236
l-43 123 -282 0 c-239 0 -283 -2 -283 -14z"/>
<path d="M17111 42268 c-335 -950 -978 -1767 -1826 -2321 -642 -419 -1379
-669 -2147 -729 l-158 -12 0 -859 0 -860 148 6 c162 7 289 19 490 44 l132 16
0 598 0 598 58 11 c451 89 929 257 1337 469 1205 628 2122 1712 2529 2991 25
79 46 150 46 157 0 10 -60 13 -283 13 l-282 0 -44 -122z"/>
<path d="M18245 42378 c-2 -7 -22 -77 -45 -155 -295 -1036 -915 -1998 -1746
-2710 -625 -535 -1384 -941 -2156 -1153 l-118 -32 0 -345 0 -345 43 7 c23 4
130 31 237 61 844 231 1605 621 2295 1178 344 278 743 685 1020 1041 516 664
890 1416 1104 2219 26 100 51 196 54 214 l7 32 -346 0 c-267 0 -346 -3 -349
-12z"/>
<path d="M33830 46511 l0 -469 23 -6 c12 -3 270 -6 572 -6 303 0 695 -3 873
-7 l322 -6 0 -3084 0 -3083 495 0 495 0 0 3065 0 3065 890 0 890 0 0 500 0
500 -2280 0 -2280 0 0 -469z"/>
<path d="M53660 46969 c-105 -13 -237 -55 -347 -109 -304 -149 -519 -418 -611
-764 l-27 -101 -3 -3072 -2 -3073 495 0 495 0 0 1425 0 1425 940 0 940 0 0
465 0 465 -940 0 -941 0 3 938 c3 933 4 937 26 1016 68 242 193 374 413 433
59 16 170 17 1347 20 l1282 4 0 469 0 470 -1502 -1 c-827 -1 -1532 -5 -1568
-10z"/>
<path d="M23800 46955 c-118 -20 -213 -52 -329 -111 -312 -159 -525 -441 -609
-808 -15 -65 -16 -352 -19 -3133 l-3 -3063 495 0 495 0 0 1425 0 1425 1225 0
1225 0 0 470 0 470 -1225 0 -1225 0 0 878 c0 1019 2 1035 90 1221 67 139 168
223 330 273 l75 23 1573 3 1572 3 0 -406 0 -405 495 0 495 0 0 405 0 405 -495
0 -495 0 0 470 0 470 -1797 -1 c-1406 -1 -1814 -4 -1873 -14z"/>
<path d="M47440 42980 l0 -3130 490 0 490 0 2 1653 c3 1543 4 1656 21 1712 57
196 170 310 367 373 112 36 198 47 380 47 153 0 184 -3 245 -22 205 -65 366
-233 431 -448 17 -57 19 -151 21 -1687 l3 -1628 490 0 490 0 0 1833 c0 1510
-3 1847 -14 1917 -70 430 -370 790 -771 924 -150 50 -215 56 -630 56 -428 0
-486 -6 -651 -65 -110 -39 -226 -105 -320 -183 l-64 -52 0 915 0 915 -490 0
-490 0 0 -3130z"/>
<path d="M66540 45625 l0 -405 490 0 490 0 0 405 0 405 -490 0 -490 0 0 -405z"/>
<path d="M27470 42215 l0 -2365 495 0 495 0 0 2365 0 2365 -495 0 -495 0 0
-2365z"/>
<path d="M29640 42215 l0 -2365 495 0 495 0 0 1678 c1 1871 -3 1772 69 1918
80 161 222 250 461 289 77 12 193 15 600 15 576 0 588 -2 740 -76 174 -86 303
-252 330 -424 6 -42 10 -661 10 -1732 l0 -1668 490 0 490 0 0 1839 c0 1614 -2
1849 -15 1927 -79 449 -407 813 -843 932 l-97 27 -788 3 c-682 2 -801 1 -880
-13 -169 -29 -358 -106 -495 -201 -35 -24 -65 -44 -67 -44 -3 0 -5 59 -5 130
l0 130 -495 0 -495 0 0 -2365z"/>
<path d="M38718 44560 c-200 -42 -325 -101 -490 -231 -190 -150 -325 -361
-396 -618 l-27 -96 -3 -1359 c-3 -1497 -5 -1427 59 -1620 122 -366 423 -651
797 -754 l97 -27 1528 -3 1527 -2 0 490 0 489 -1297 3 c-1231 3 -1301 4 -1363
22 -82 24 -169 67 -214 107 -78 68 -132 225 -151 436 l-6 72 1108 4 c1081 3
1110 4 1198 24 464 108 806 466 889 933 15 83 17 162 14 640 l-4 545 -26 96
c-115 421 -413 723 -826 837 l-97 27 -1115 2 c-1051 2 -1120 1 -1202 -17z
m1951 -931 c172 -39 311 -190 340 -369 16 -97 13 -402 -4 -483 -30 -141 -123
-258 -252 -320 l-68 -32 -947 -3 -948 -2 0 404 c0 262 4 424 11 458 25 118
112 240 214 298 104 59 93 59 885 59 455 0 741 -3 769 -10z"/>
<path d="M43475 44573 c-57 -8 -190 -45 -255 -70 -298 -118 -549 -382 -659
-695 -69 -199 -66 -117 -66 -1593 0 -1046 3 -1345 13 -1400 78 -424 359 -762
748 -901 183 -65 154 -64 1334 -64 1160 0 1151 0 1325 56 310 101 573 332 685
600 64 155 76 240 86 642 l7 282 -500 0 -500 0 -11 -119 c-30 -304 -136 -436
-397 -497 -74 -18 -129 -19 -700 -19 -561 0 -627 2 -689 18 -204 52 -334 172
-393 362 -17 57 -18 117 -18 1040 0 909 1 985 18 1050 59 231 183 332 449 365
65 8 273 10 688 7 654 -4 671 -5 796 -67 147 -72 221 -209 239 -445 3 -49 9
-98 11 -107 5 -17 38 -18 504 -18 l499 0 -5 323 c-5 250 -10 342 -24 412 -69
352 -371 670 -748 789 -181 57 -161 56 -1331 55 -592 -1 -1089 -4 -1106 -6z"/>
<path d="M56730 42773 c0 -1114 4 -1841 10 -1893 31 -270 137 -494 325 -685
147 -151 288 -238 480 -298 149 -47 186 -48 1075 -45 l835 3 97 27 c106 29
232 85 321 141 l57 37 0 -105 0 -105 495 0 495 0 0 2365 0 2365 -495 0 -495 0
0 -1658 c0 -1825 4 -1706 -62 -1842 -60 -125 -179 -213 -355 -263 -77 -21 -88
-22 -698 -22 -618 0 -620 0 -700 23 -195 57 -300 150 -364 326 l-26 71 -3
1683 -2 1682 -495 0 -495 0 0 -1807z"/>
<path d="M62567 44564 c-310 -56 -596 -245 -772 -509 -67 -100 -109 -193 -143
-315 l-27 -95 0 -440 c0 -424 1 -443 23 -528 95 -375 363 -684 699 -807 177
-64 147 -62 1073 -70 799 -7 851 -9 957 -28 234 -44 341 -101 398 -212 65
-128 60 -372 -10 -517 -42 -84 -84 -124 -179 -169 -153 -71 -80 -68 -1483 -71
l-1263 -4 0 -474 0 -475 1469 0 c1612 0 1547 -2 1727 61 383 133 662 457 744
859 20 99 21 127 17 510 -4 442 -5 448 -72 625 -129 343 -418 606 -773 703
l-97 26 -935 7 c-1033 7 -1019 6 -1143 71 -70 37 -111 90 -137 176 -26 83 -44
275 -37 387 10 158 77 254 214 305 147 55 94 53 1481 57 l1282 4 0 469 0 470
-1467 -1 c-1220 -1 -1481 -3 -1546 -15z"/>
<path d="M66540 42215 l0 -2365 490 0 490 0 0 2365 0 2365 -490 0 -490 0 0
-2365z"/>
<path d="M69193 44565 c-98 -18 -214 -58 -308 -106 -261 -133 -472 -379 -568
-659 -65 -190 -61 -96 -65 -1525 -2 -921 0 -1329 8 -1399 31 -266 145 -505
334 -692 142 -141 285 -229 471 -287 152 -48 171 -48 1325 -45 l1085 3 98 27
c378 104 680 392 801 763 57 178 56 142 56 1565 0 1157 -2 1317 -16 1400 -73
427 -372 781 -769 914 -169 57 -155 56 -1314 55 -828 -1 -1082 -4 -1138 -14z
m1850 -953 c209 -58 329 -177 384 -382 17 -60 18 -138 18 -1015 0 -869 -1
-956 -17 -1018 -53 -206 -187 -333 -407 -384 -69 -16 -136 -18 -691 -18 -556
0 -622 2 -684 18 -217 55 -347 186 -391 393 -12 58 -15 222 -15 1009 0 1027 0
1015 59 1139 71 151 215 246 416 275 33 5 328 8 655 7 579 -2 597 -2 673 -24z"/>
<path d="M73190 42215 l0 -2365 490 0 489 0 4 1703 c3 1583 4 1707 20 1766 45
165 130 272 269 340 175 86 244 93 883 89 l520 -3 80 -27 c165 -56 299 -164
368 -295 72 -137 67 -2 67 -1880 l0 -1693 495 0 495 0 0 1803 c0 1094 -4 1835
-10 1886 -43 377 -250 698 -573 892 -76 45 -187 91 -295 122 -76 21 -92 22
-862 25 -690 3 -797 1 -884 -13 -174 -29 -328 -90 -481 -189 -47 -31 -88 -56
-90 -56 -3 0 -5 59 -5 130 l0 130 -490 0 -490 0 0 -2365z"/>
</g>
</svg>
