<?xml version="1.0" standalone="no"?>
<!DOCTYPE svg PUBLIC "-//W3C//DTD SVG 20010904//EN"
 "http://www.w3.org/TR/2001/REC-SVG-20010904/DTD/svg10.dtd">
<svg version="1.0" xmlns="http://www.w3.org/2000/svg"
 width="8334.000000pt" height="8334.000000pt" viewBox="0 0 8334.000000 8334.000000"
 preserveAspectRatio="xMidYMid meet">

<g transform="translate(0.000000,8334.000000) scale(0.100000,-0.100000)"
fill="#000000" stroke="none">
<path d="M73095 47290 c-1300 -62 -2518 -426 -3605 -1078 -1251 -750 -2272
-1844 -2924 -3132 -452 -892 -705 -1779 -802 -2810 -35 -373 -29 -1024 12
-1445 159 -1625 837 -3153 1936 -4370 1256 -1388 2917 -2258 4758 -2489 524
-66 1233 -74 1755 -21 2163 224 4088 1319 5398 3070 1162 1552 1685 3499 1467
5455 -226 2024 -1241 3859 -2845 5145 -638 512 -1363 922 -2135 1208 -662 245
-1366 397 -2090 451 -253 19 -697 27 -925 16z m595 -820 c1038 -43 1986 -291
2885 -754 1184 -610 2170 -1551 2830 -2701 121 -210 302 -577 390 -790 772
-1865 684 -3973 -239 -5760 -677 -1311 -1734 -2353 -3054 -3014 -769 -385
-1547 -607 -2442 -697 -212 -21 -807 -30 -1030 -15 -982 66 -1845 300 -2695
731 -1237 628 -2249 1603 -2921 2816 -376 679 -636 1427 -763 2194 -70 424
-96 789 -88 1245 9 500 54 892 158 1360 418 1889 1631 3530 3319 4490 197 112
582 301 772 379 747 308 1544 483 2338 515 272 11 284 11 540 1z"/>
<path d="M73055 45889 c-140 -9 -386 -33 -502 -51 l-73 -10 -2 -596 -3 -596
-165 -37 c-1101 -245 -2081 -846 -2815 -1724 -434 -520 -769 -1138 -960 -1771
-20 -65 -38 -127 -41 -137 -5 -16 11 -17 281 -15 l287 3 43 125 c130 382 320
760 551 1098 671 983 1705 1670 2868 1907 174 35 408 68 574 81 l92 7 0 863
c0 475 -1 863 -2 863 -2 -1 -61 -6 -133 -10z"/>
<path d="M73630 45035 l0 -865 60 0 c33 0 127 -7 208 -15 417 -44 834 -145
1227 -300 178 -69 498 -230 679 -339 663 -402 1224 -974 1606 -1640 139 -243
299 -598 376 -838 l28 -88 283 0 c212 0 283 3 283 12 0 49 -149 475 -235 673
-260 599 -612 1112 -1085 1585 -423 424 -838 722 -1365 980 -388 191 -726 309
-1152 404 l-148 33 -3 596 -2 595 -33 6 c-101 18 -374 44 -639 61 l-88 5 0
-865z"/>
<path d="M74830 45400 l0 -347 88 -23 c48 -12 163 -47 256 -77 1038 -336 1980
-988 2665 -1847 476 -597 843 -1318 1032 -2028 l34 -128 346 0 347 0 -24 103
c-308 1305 -1024 2472 -2059 3352 -748 636 -1656 1099 -2585 1319 l-100 24 0
-348z"/>
<path d="M71845 45699 c-686 -181 -1318 -464 -1898 -851 -1318 -880 -2260
-2218 -2632 -3737 -19 -80 -35 -149 -35 -153 0 -4 155 -8 345 -8 l344 0 11 43
c259 989 763 1869 1484 2589 682 681 1557 1192 2474 1443 l102 28 0 344 0 343
-22 -1 c-13 0 -90 -18 -173 -40z"/>
<path d="M73205 43544 c-561 -44 -1011 -160 -1478 -382 -673 -320 -1277 -868
-1670 -1517 -184 -304 -321 -617 -422 -970 l-43 -150 -1196 -3 c-658 -1 -1196
-3 -1196 -5 0 -2 -7 -55 -15 -118 -17 -130 -45 -457 -45 -530 l0 -49 1175 0
1175 0 0 -220 0 -220 -1176 0 -1177 0 7 -127 c8 -135 27 -342 47 -505 l12 -98
1200 -2 1201 -3 8 -35 c68 -278 226 -671 379 -943 84 -149 249 -392 365 -537
138 -173 431 -466 604 -604 375 -299 762 -512 1205 -662 664 -226 1369 -270
2071 -129 877 177 1675 658 2255 1360 350 424 645 996 763 1483 l18 72 1199 0
1198 0 6 33 c20 120 38 309 60 624 l5 73 -1176 2 -1176 3 0 215 0 215 1176 3
1176 2 -5 83 c-17 236 -26 345 -41 475 l-17 142 -1197 0 -1196 0 -33 123
c-144 528 -415 1047 -776 1484 -114 139 -369 394 -508 508 -242 201 -466 346
-752 490 -439 222 -838 341 -1340 400 -124 15 -564 27 -670 19z m1147 -1761
l988 -988 0 -332 c0 -183 -3 -333 -7 -333 -5 0 -450 442 -990 982 l-983 983
-910 -910 -910 -910 0 340 0 340 907 907 c500 500 910 908 913 908 3 0 449
-444 992 -987z m-1074 -2594 c26 -23 41 -29 80 -29 27 0 57 7 70 16 55 38 52
-26 52 1271 l0 1198 260 -260 260 -260 0 -1190 0 -1190 -320 -320 -320 -320
-320 320 -320 320 0 1190 0 1190 258 258 257 257 5 -1211 5 -1211 33 -29z
m2062 -169 l-1 -765 -987 -912 -987 -913 -912 913 -913 912 0 845 0 845 467
467 c258 258 471 468 475 468 5 0 8 -503 8 -1118 l0 -1117 435 -435 435 -435
435 435 435 435 0 1125 0 1125 555 -555 555 -555 0 -765z"/>
<path d="M67290 38203 c0 -18 53 -225 90 -352 212 -733 547 -1405 1001 -2011
789 -1052 1858 -1822 3086 -2223 180 -59 530 -157 561 -157 9 0 12 84 12 345
0 190 -2 345 -4 345 -2 0 -88 25 -190 55 -747 220 -1437 593 -2050 1108 -168
142 -511 485 -653 653 -548 653 -911 1343 -1147 2187 l-17 57 -344 0 c-190 0
-345 -3 -345 -7z"/>
<path d="M68517 38158 c328 -1116 1029 -2086 1998 -2766 529 -372 1161 -648
1809 -792 77 -17 143 -33 148 -36 4 -3 8 -272 8 -598 l0 -593 133 -16 c183
-24 300 -35 450 -43 l127 -7 0 862 c0 473 -4 861 -8 861 -50 0 -361 36 -481
55 -1463 238 -2723 1175 -3376 2510 -92 187 -181 401 -226 543 l-23 72 -287 0
-288 0 16 -52z"/>
<path d="M77785 38158 c-37 -115 -151 -391 -219 -533 -321 -666 -794 -1241
-1388 -1685 -713 -534 -1559 -847 -2445 -906 l-103 -7 0 -860 0 -860 153 7
c150 6 349 24 520 47 l87 12 0 593 c0 326 4 595 8 598 5 3 73 19 153 36 1332
291 2499 1117 3240 2295 217 344 398 735 528 1138 28 87 51 163 51 168 0 5
-115 9 -284 9 l-284 0 -17 -52z"/>
<path d="M78876 38138 c-52 -206 -194 -599 -300 -837 -696 -1545 -2073 -2714
-3703 -3141 l-43 -11 0 -344 c0 -272 3 -345 13 -345 24 0 327 80 469 124 1172
364 2204 1061 3003 2026 598 722 1054 1643 1259 2538 l14 62 -347 0 -347 0
-18 -72z"/>
<path d="M41468 40303 c-3 -2548 -4 -2701 -21 -2758 -83 -284 -303 -424 -707
-454 -109 -8 -1683 13 -1804 24 -152 14 -335 89 -448 182 -64 53 -127 132
-164 205 -56 110 -54 60 -54 1390 l0 1228 -575 0 -575 0 0 -1518 c0 -1017 3
-1538 11 -1578 60 -342 321 -631 671 -744 156 -50 131 -49 1522 -65 874 -10
1340 -11 1402 -5 237 25 485 111 682 236 29 19 55 34 57 34 3 0 5 -63 5 -140
l0 -141 463 3 c458 3 462 3 512 26 93 43 159 126 171 216 l6 44 67 -43 c196
-127 430 -208 673 -234 137 -15 2718 -15 2788 0 106 23 200 115 221 218 l12
57 51 -34 c138 -93 362 -184 553 -224 l108 -23 1370 -2 c1226 -3 1375 -1 1424
13 73 21 132 63 170 120 28 43 36 66 43 132 l3 24 25 -20 c102 -80 337 -185
508 -226 184 -45 269 -48 1187 -44 842 4 862 5 957 26 284 65 496 179 689 371
148 148 239 290 299 469 61 184 60 143 60 1655 l0 1377 -575 0 -575 0 0 -1222
c0 -1353 3 -1288 -65 -1417 -90 -170 -264 -295 -492 -354 -86 -22 -99 -22
-688 -22 -436 0 -624 4 -687 13 -366 54 -554 194 -624 467 -17 65 -18 156 -21
1303 l-4 1232 -574 0 -575 0 0 -1242 -1 -1243 -22 -66 c-75 -221 -279 -385
-554 -447 -69 -15 -144 -17 -673 -17 -608 0 -672 3 -825 41 -226 56 -383 177
-445 342 -51 134 -50 119 -50 1418 l0 1214 -575 0 -575 0 0 -1222 c0 -1353 3
-1288 -65 -1417 -90 -170 -264 -295 -492 -354 -86 -22 -99 -22 -698 -22 -655
0 -732 4 -894 51 -264 77 -403 223 -446 468 -13 78 -15 400 -15 2742 l0 2654
-575 0 -575 0 -2 -2697z"/>
<path d="M54750 39430 l0 -3570 3613 3 c3321 3 3618 4 3692 20 149 30 260 67
380 126 156 76 271 160 387 279 145 150 240 302 297 480 59 181 56 102 56
1702 0 1217 -2 1487 -14 1545 -106 538 -546 950 -1123 1052 -96 17 -189 18
-1388 18 -1204 0 -1292 -1 -1390 -18 -301 -53 -560 -185 -765 -392 -189 -189
-304 -400 -357 -655 -10 -53 -13 -341 -13 -1535 0 -808 3 -1496 8 -1527 l7
-58 -1100 0 -1100 0 0 3050 0 3050 -595 0 -595 0 0 -3570z m6715 593 c118 -27
189 -55 262 -102 121 -78 199 -190 240 -341 17 -60 18 -144 18 -1105 0 -964
-1 -1045 -18 -1109 -57 -222 -206 -366 -443 -426 -139 -36 -293 -42 -974 -37
-742 4 -753 6 -928 92 -113 56 -182 121 -234 221 -77 145 -73 83 -73 1259 0
1171 -4 1100 70 1251 88 180 286 290 567 314 51 4 392 7 758 5 628 -2 670 -3
755 -22z"/>
<path d="M31620 42155 l0 -445 595 0 595 0 0 445 0 445 -595 0 -595 0 0 -445z"/>
<path d="M60050 42155 l0 -445 600 0 600 0 0 445 0 445 -600 0 -600 0 0 -445z"/>
<path d="M39394 42369 c-112 -35 -210 -122 -234 -207 -15 -56 -12 -220 5 -279
21 -71 89 -144 173 -185 l67 -33 340 -7 c376 -7 432 -14 478 -60 27 -26 29
-34 25 -84 -3 -38 -11 -61 -27 -77 -44 -48 -67 -50 -543 -54 l-448 -4 0 -125
0 -125 533 3 c521 4 533 4 592 26 116 43 213 144 229 239 11 67 6 188 -9 240
-30 100 -111 177 -229 216 -55 19 -95 21 -421 26 -325 5 -364 8 -388 24 -35
22 -47 54 -47 118 0 65 10 83 62 105 39 17 85 19 501 22 l457 4 0 119 0 119
-527 -1 c-495 0 -532 -1 -589 -20z"/>
<path d="M43310 41165 l0 -445 1195 0 1195 0 0 445 0 445 -1195 0 -1195 0 0
-445z"/>
<path d="M47150 41165 l0 -445 600 0 600 0 0 445 0 445 -600 0 -600 0 0 -445z"/>
<path d="M30919 41080 c-631 -58 -1143 -512 -1234 -1096 -14 -87 -15 -275 -12
-1559 2 -803 7 -1475 12 -1492 l7 -33 -612 0 c-580 0 -612 1 -604 18 5 9 10
653 12 1430 l3 1412 -576 0 -575 0 -2 -1247 -3 -1248 -24 -64 c-92 -247 -333
-415 -647 -451 -134 -16 -1166 -8 -1272 9 -338 55 -521 184 -598 421 -15 48
-18 113 -24 510 -7 489 -11 532 -67 698 -154 462 -598 814 -1109 882 -65 8
-444 10 -1424 8 l-1335 -4 -108 -26 c-535 -133 -921 -520 -1024 -1025 -16 -78
-18 -150 -18 -653 0 -503 2 -575 18 -653 104 -510 492 -893 1046 -1030 85 -21
96 -21 1454 -24 l1367 -4 0 -42 c0 -23 -5 -79 -10 -123 -46 -366 -201 -505
-605 -544 -71 -6 -636 -10 -1577 -10 l-1468 0 0 -540 0 -540 1765 0 c1149 0
1800 4 1863 10 188 20 389 83 549 171 294 162 533 448 623 746 52 172 52 182
59 680 l6 472 55 -35 c197 -126 441 -210 682 -234 82 -8 1179 -10 4063 -8
3636 4 3956 5 4030 21 147 30 259 67 380 126 392 190 665 542 730 941 13 82
15 286 15 1520 0 1564 2 1518 -60 1702 -63 188 -167 354 -309 497 -210 209
-459 340 -761 397 -88 17 -184 18 -1345 20 -687 1 -1289 -2 -1336 -6z m1951
-1040 c365 -30 571 -177 647 -460 17 -60 18 -144 18 -1105 0 -964 -1 -1045
-18 -1109 -57 -222 -206 -365 -443 -426 -139 -36 -294 -42 -974 -37 -611 4
-650 5 -740 25 -203 45 -354 150 -425 296 -74 151 -70 80 -70 1251 0 1170 -4
1100 69 1250 88 179 288 290 566 314 136 12 1233 13 1370 1z m-9695 -1815
c131 -34 273 -143 328 -250 56 -112 57 -120 57 -617 l0 -458 -1122 0 c-1228 0
-1168 -2 -1293 59 -122 61 -216 171 -255 299 -18 57 -20 93 -20 312 0 219 2
255 20 312 50 163 191 296 361 342 83 23 1838 23 1924 1z"/>
<path d="M14470 40005 l0 -555 1363 0 c1315 0 1367 -1 1439 -19 185 -47 342
-169 441 -343 15 -25 41 -88 59 -140 l33 -93 3 -545 c4 -704 -6 -809 -100
-1000 -93 -191 -262 -299 -518 -330 -55 -6 -847 -10 -2282 -10 l-2198 0 0 620
0 620 -600 0 -600 0 0 -1053 c0 -1021 -1 -1056 -20 -1132 -56 -218 -204 -353
-459 -418 -85 -22 -96 -22 -856 -22 -769 0 -770 0 -860 23 -200 51 -334 149
-405 296 -71 147 -70 129 -70 1282 l0 1024 -595 0 -595 0 0 -1254 c0 -1375 -2
-1334 60 -1518 64 -189 156 -336 309 -489 190 -191 401 -308 681 -377 l105
-26 1329 -3 c1284 -3 1334 -3 1445 16 443 75 818 347 1006 730 74 151 111 291
122 468 l6 103 3044 0 3043 0 0 555 0 555 -160 2 -160 3 44 59 c148 198 242
437 267 676 7 69 9 379 6 915 -3 708 -6 819 -20 885 -56 249 -166 449 -352
635 -195 196 -423 318 -727 388 -93 21 -99 21 -1660 24 l-1568 4 0 -556z"/>
<path d="M9580 39720 l0 -440 600 0 600 0 0 440 0 440 -600 0 -600 0 0 -440z"/>
<path d="M15160 34795 l0 -445 595 0 595 0 0 445 0 445 -595 0 -595 0 0 -445z"/>
<path d="M25420 34795 l0 -445 1200 0 1200 0 0 445 0 445 -1200 0 -1200 0 0
-445z"/>
<path d="M50430 34795 l0 -445 1195 0 1195 0 0 445 0 445 -1195 0 -1195 0 0
-445z"/>
</g>
</svg>
